<?xml version="1.0" standalone="no"?>
<!DOCTYPE svg PUBLIC "-//W3C//DTD SVG 20010904//EN"
 "http://www.w3.org/TR/2001/REC-SVG-20010904/DTD/svg10.dtd">
<svg version="1.0" xmlns="http://www.w3.org/2000/svg"
 width="700.000000pt" height="700.000000pt" viewBox="0 0 700.000000 700.000000"
 preserveAspectRatio="xMidYMid meet">
<metadata>
Created by potrace 1.11, written by Peter Selinger 2001-2013
</metadata>
<g transform="translate(0.000000,700.000000) scale(0.100000,-0.100000)"
fill="#000000" stroke="none">
<path d="M1430 6986 c-111 -30 -211 -104 -267 -197 -68 -114 -63 88 -64 -2660
0 -1613 3 -2494 10 -2511 11 -30 47 -58 73 -58 10 0 18 -3 19 -7 6 -54 2 -267
-6 -272 -5 -5 -21 -11 -35 -14 -14 -3 -33 -20 -43 -36 -16 -27 -17 -66 -17
-433 0 -222 3 -418 6 -436 16 -94 69 -188 141 -251 41 -36 66 -50 158 -92 44
-21 4085 -26 4160 -5 168 45 291 171 325 333 7 32 9 760 8 2196 l-3 2149 -28
24 c-15 13 -37 24 -48 24 -10 0 -19 6 -20 13 -1 19 -1 209 0 239 1 21 7 29 26
34 14 3 36 20 50 36 l25 30 0 761 c0 487 -4 778 -11 807 -36 157 -161 283
-322 326 -72 19 -4067 19 -4137 0z"/>
</g>
</svg>
